<?xml version="1.0" standalone="no"?>
<!DOCTYPE svg PUBLIC "-//W3C//DTD SVG 20010904//EN"
 "http://www.w3.org/TR/2001/REC-SVG-20010904/DTD/svg10.dtd">
<svg version="1.0" xmlns="http://www.w3.org/2000/svg"
 width="512.000000pt" height="512.000000pt" viewBox="0 0 512.000000 512.000000"
 preserveAspectRatio="xMidYMid meet">
<metadata>
Created by potrace 1.14, written by Peter Selinger 2001-2017
</metadata>
<g transform="translate(0.000000,512.000000) scale(0.100000,-0.100000)"
fill="#000000" stroke="none">
<path d="M3161 3255 c-18 -8 -53 -15 -77 -15 -58 0 -61 -25 -4 -34 24 -4 43
-14 50 -25 6 -12 10 -93 10 -191 l0 -172 -27 18 c-119 78 -230 72 -328 -18
-62 -57 -88 -107 -105 -205 -23 -128 13 -265 90 -340 95 -91 216 -96 317 -13
l48 40 3 -45 c2 -25 6 -45 10 -45 4 0 25 7 47 15 22 8 57 14 78 15 30 0 37 4
37 20 0 15 -7 20 -27 20 -61 0 -58 -25 -61 505 -2 374 -5 485 -15 485 -6 -1
-27 -7 -46 -15z m-135 -420 c27 -8 64 -29 82 -46 l32 -31 0 -174 c0 -155 -2
-179 -20 -217 -28 -57 -39 -71 -80 -96 -64 -39 -155 -25 -207 31 -70 76 -83
301 -25 429 24 52 54 82 102 103 44 19 55 19 116 1z"/>
<path d="M1357 3123 c-4 -3 -7 -21 -7 -38 0 -109 -80 -195 -182 -195 -32 0
-39 -3 -36 -17 3 -15 18 -19 88 -23 l85 -5 5 -265 c3 -146 9 -274 14 -285 31
-68 99 -115 167 -115 54 0 133 45 158 90 33 59 42 97 26 104 -8 3 -17 -4 -20
-17 -27 -92 -67 -127 -147 -127 -109 0 -119 33 -116 367 l3 248 118 3 c108 2
117 4 117 22 0 18 -9 20 -117 22 l-118 3 -3 118 c-2 88 -6 117 -16 117 -7 0
-16 -3 -19 -7z"/>
<path d="M2083 2870 c-63 -25 -135 -100 -171 -180 -22 -47 -26 -70 -26 -155
-1 -88 2 -107 25 -156 46 -98 102 -149 200 -183 143 -50 303 36 374 199 12 29
17 68 18 140 0 88 -3 107 -27 156 -34 72 -97 144 -150 171 -60 31 -174 35
-243 8z m179 -34 c46 -20 96 -71 122 -126 18 -39 21 -63 21 -175 0 -122 -2
-133 -28 -188 -41 -82 -94 -117 -178 -117 -75 0 -133 29 -171 87 -39 60 -48
99 -48 214 0 132 20 195 80 254 66 64 131 80 202 51z"/>
<path d="M3655 2878 c-46 -17 -112 -65 -139 -101 -14 -18 -37 -60 -52 -92 -24
-51 -28 -72 -27 -150 1 -171 80 -289 225 -340 54 -18 100 -19 159 -1 98 30
157 81 206 176 26 51 28 64 28 165 -1 104 -3 113 -33 173 -38 73 -91 130 -147
157 -47 23 -174 30 -220 13z m173 -49 c49 -24 104 -92 120 -149 18 -62 24
-163 13 -229 -14 -87 -47 -149 -99 -188 -38 -29 -51 -33 -103 -33 -76 0 -115
16 -161 68 -48 53 -68 122 -68 232 0 104 19 174 63 232 64 84 149 108 235 67z"/>
</g>
</svg>
